PathFileType	4	(X/Y/Z)	D:\TRACE\v60_Jaco2_6-2-23\JustBodyDRS_Motion1_8-platform.trc
DataRate	CameraRate	NumFrames	NumMarkers	Units	OrigDataRate	OrigDataStartFrame	OrigNumFrames
100.00	100.00	      42	5	mm	100.00	1679	      6712
Frame#	Time	Left_Front			Right_Front			Left_Aft			Right_Aft			Post			
		X1	Y1	Z1	X2	Y2	Z2	X3	Y3	Z3	X4	Y4	Z4	X5	Y5	Z5	

1679	16.780	-752.76617	33.27206	-633.01172	817.26019	34.55190	-638.27454	-660.74597	-9.57813	501.23541	781.32428	-10.93186	510.84988	33.53170	1343.37866	-906.34460	
1680	16.790	-753.07245	33.46864	-632.88470	816.85004	34.80546	-638.12720	-661.55341	-9.28438	501.21494	781.22833	-10.95382	510.88382	33.30663	1343.77319	-906.43732	
1681	16.800	-753.42053	33.77534	-632.84235	816.41211	35.03774	-638.14642	-661.62854	-9.74111	501.47391	780.84363	-11.24621	510.88879	33.34063	1344.18909	-906.64264	
1682	16.810	-753.88385	34.12434	-632.66779	816.03711	35.35509	-638.09125	-661.85321	-9.93905	501.55814	780.23090	-11.68920	510.99448	32.94320	1344.55249	-907.07013	
1683	16.820	-754.17426	34.24984	-632.69861	815.79327	35.54579	-638.02631	-662.03033	-10.10833	501.62625	778.91711	-12.58253	510.31854	32.36544	1344.92896	-907.43628	
1684	16.830	-754.45032	34.38208	-632.71478	815.54071	35.70094	-637.93451	-662.60968	-10.36269	501.55652	779.57166	-11.79370	510.92517	32.02880	1345.41101	-907.15857	
1685	16.840	-754.76941	34.55792	-632.69525	815.06293	35.88339	-637.88098	-663.10376	-10.48492	501.64691	778.82404	-12.20349	510.87173	31.46776	1345.52722	-906.72168	
1686	16.850	-755.31964	34.88516	-632.60645	814.67999	36.03495	-637.82654	-663.59833	-10.50545	501.74939	778.57532	-12.24522	510.92209	31.12356	1345.66284	-905.88275	
1687	16.860	-755.93378	35.17823	-632.31567	814.07733	36.43113	-637.79010	-664.00110	-10.57578	501.82141	778.28461	-12.28704	510.90265	30.94335	1345.93665	-905.16809	
1688	16.870	-756.50500	35.24680	-632.21057	813.49237	36.58841	-637.78479	-664.42084	-10.73668	501.97995	777.80920	-12.37037	511.03958	30.05195	1346.31226	-903.90271	
1689	16.880	-756.77203	35.29751	-632.14343	813.06171	36.74476	-637.74353	-664.85187	-10.90815	501.92212	777.44769	-12.36172	511.10068	29.26313	1346.34021	-902.64459	
1690	16.890	-757.13000	35.45104	-632.24512	812.67920	36.85212	-637.68433	-665.22498	-11.01343	501.82928	776.60828	-12.55094	511.11856	28.96700	1346.38464	-901.31348	
1691	16.900	-757.51526	35.73397	-632.35400	812.25287	36.89561	-637.66119	-665.73645	-11.11943	501.93591	776.29248	-12.64780	511.13806	28.76836	1346.69153	-900.21259	
1692	16.910	-758.13037	35.96795	-632.37158	811.60236	37.17062	-637.57697	-666.33337	-11.16143	501.99298	775.81256	-12.82814	511.19266	28.60581	1346.95117	-899.99677	
1693	16.920	-758.81134	36.22327	-632.27716	811.14215	37.36274	-637.55200	-667.00500	-11.24142	501.94849	775.46008	-12.82204	511.20975	27.46465	1347.18604	-899.93866	
1694	16.930	-759.28162	36.79039	-632.13245	810.55499	37.61443	-637.56549	-667.40094	-11.31625	501.98920	774.81635	-12.81529	511.19019	26.88792	1347.34570	-900.29358	
1695	16.940	-759.87317	36.57656	-631.92322	810.14056	37.71247	-637.61584	-667.72992	-11.37493	501.83807	773.78406	-13.03147	511.17926	26.61738	1347.62500	-900.85834	
1696	16.950	-760.29498	36.53237	-631.96899	809.38550	37.64333	-637.44012	-668.63287	-11.47033	501.74478	773.21289	-13.39581	511.26324	26.31063	1348.03857	-901.37305	
1697	16.960	-760.74097	36.65717	-631.98767	809.02606	37.52787	-637.30109	-669.47131	-11.39831	501.79810	772.95007	-13.34676	511.36218	25.73343	1348.28442	-901.64087	
1698	16.970	-761.29388	36.69271	-632.07031	808.50073	37.60096	-637.30682	-670.10614	-11.30223	501.45883	772.75989	-13.31994	511.38788	25.03518	1348.62146	-901.73920	
1699	16.980	-762.15228	37.05352	-631.96655	807.78650	38.03209	-637.24548	-670.21899	-12.26492	502.15207	771.72729	-13.57917	511.33154	24.56576	1348.54871	-901.44336	
1700	16.990	-762.72919	37.45019	-631.90094	807.15979	38.14873	-637.26428	-670.68329	-12.35984	502.27130	770.81439	-13.85567	511.31729	23.89517	1348.71155	-900.92279	
1701	17.000	-763.26068	37.57227	-631.83734	806.60498	38.23746	-637.11700	-671.25409	-12.32327	502.77704	770.43164	-13.85034	511.34628	23.05450	1349.04016	-900.50470	
1702	17.010	-763.81421	37.44889	-631.79865	805.95898	38.31170	-637.05353	-672.07593	-12.13736	502.61002	770.29828	-13.78922	511.41702	22.34065	1349.16064	-899.35724	
1703	17.020	-764.42072	37.38924	-631.77655	805.27863	38.33135	-637.08740	-672.68951	-12.34620	502.43130	769.40076	-13.75727	511.43091	22.09698	1349.03467	-898.19421	
1704	17.030	-765.11127	37.25423	-631.85315	804.74646	38.42215	-637.13892	-673.33588	-12.34860	502.40262	768.34375	-13.83027	511.44708	21.15608	1349.07117	-897.20081	
1705	17.040	-766.15973	37.60274	-631.74231	803.91559	38.53714	-637.09290	-674.08527	-12.44211	502.31885	767.96686	-13.91381	511.38867	20.50425	1349.14502	-896.38141	
1706	17.050	-766.63452	37.65212	-631.87054	803.33942	38.64846	-636.92175	-674.80170	-12.35607	502.26389	767.62219	-13.97728	511.38339	19.96261	1349.31079	-896.21613	
1707	17.060	-767.12573	37.61721	-631.73297	802.76343	38.73954	-636.92963	-675.33154	-12.23553	502.16916	766.71814	-14.15708	511.44687	19.01519	1349.45154	-896.84583	
1708	17.070	-767.82623	37.75394	-631.64105	802.14862	38.75490	-636.96167	-676.31781	-12.20781	502.16837	765.89471	-14.15623	511.47348	18.38957	1349.55884	-897.11877	
1709	17.080	-768.48895	37.58566	-631.52386	801.18872	38.68772	-637.06696	-676.90051	-12.34946	502.39362	765.43274	-13.99015	511.50092	17.82355	1349.66602	-897.62048	
1710	17.090	-769.62885	37.73323	-631.46991	800.34515	38.59156	-637.06775	-677.75073	-12.41163	502.58200	764.79895	-13.94329	511.59744	16.76989	1349.81433	-898.72943	
1711	17.100	-770.14325	37.88595	-631.56940	799.72046	38.69908	-636.93134	-678.34338	-12.51683	502.55939	763.58478	-14.46397	511.66043	16.56939	1349.71704	-898.84534	
1712	17.110	-770.88739	37.98627	-631.53125	799.11450	38.83638	-636.97418	-679.00757	-12.42783	502.58301	763.09009	-14.42809	511.58221	16.03543	1349.93530	-898.87646	
1713	17.120	-771.41632	37.98363	-631.48389	798.47498	38.90930	-637.01746	-679.74554	-12.47705	502.49338	762.67456	-14.24280	511.65802	14.78412	1350.03540	-898.83087	
1714	17.130	-772.14667	38.08469	-631.29376	797.56433	38.84375	-636.87036	-680.53009	-12.54984	502.42801	761.51489	-14.13738	511.72751	13.89997	1349.94983	-898.83588	
1715	17.140	-773.23706	37.87025	-631.47327	796.88898	38.78390	-636.70508	-681.14972	-12.65955	502.39200	760.59552	-14.28388	511.66046	13.17678	1349.90894	-898.20435	
1716	17.150	-774.02661	37.88655	-631.71356	796.04340	38.86264	-636.71497	-682.12079	-12.80944	502.45703	760.03558	-14.40841	511.72009	12.48066	1349.74292	-897.52344	
1717	17.160	-774.81573	37.91326	-631.65033	795.29907	38.85704	-636.78253	-682.80322	-12.74542	502.55399	759.39075	-14.36140	511.68811	11.56791	1349.71753	-896.59979	
1718	17.170	-775.28754	38.01654	-631.53491	794.38660	39.00182	-636.79218	-683.42212	-12.61874	502.59155	758.14642	-14.20981	511.79816	10.65791	1349.91479	-896.06079	
1719	17.180	-776.27838	38.17895	-631.30200	793.65234	39.09212	-636.67896	-684.51990	-12.54915	502.60583	757.59265	-14.12942	511.76193	10.13042	1349.92493	-896.01312	
1720	17.190	-777.11414	37.92660	-631.53607	792.83142	38.85498	-636.85846	-685.49121	-12.46174	502.54147	756.93274	-14.30662	511.82703	9.31418	1349.70667	-895.89716	
